<?xml version="1.0" encoding="UTF-8" standalone="no"?>
<!-- Created with Inkscape (http://www.inkscape.org/) -->

<svg
   xmlns:dc="http://purl.org/dc/elements/1.1/"
   xmlns:cc="http://creativecommons.org/ns#"
   xmlns:rdf="http://www.w3.org/1999/02/22-rdf-syntax-ns#"
   xmlns:svg="http://www.w3.org/2000/svg"
   xmlns="http://www.w3.org/2000/svg"
   xmlns:sodipodi="http://sodipodi.sourceforge.net/DTD/sodipodi-0.dtd"
   xmlns:inkscape="http://www.inkscape.org/namespaces/inkscape"
   id="svg4155"
   version="1.1"
   inkscape:version="0.91 r13725"
   xml:space="preserve"
   width="179.84273mm"
   height="25.942308mm"
   viewBox="0 0 637.23802 91.921567"
   sodipodi:docname="paymentspring_header_logo.svg"><metadata
     id="metadata4161"><rdf:RDF><cc:Work
         rdf:about=""><dc:format>image/svg+xml</dc:format><dc:type
           rdf:resource="http://purl.org/dc/dcmitype/StillImage" /><dc:title></dc:title></cc:Work></rdf:RDF></metadata><defs
     id="defs4159"><clipPath
       clipPathUnits="userSpaceOnUse"
       id="clipPath4169"><path
         d="m 0,329.359 671.28,0 L 671.28,0 0,0 0,329.359 Z"
         id="path4171"
         inkscape:connector-curvature="0" /></clipPath></defs><sodipodi:namedview
     pagecolor="#ffffff"
     bordercolor="#666666"
     borderopacity="1"
     objecttolerance="10"
     gridtolerance="10"
     guidetolerance="10"
     inkscape:pageopacity="0"
     inkscape:pageshadow="2"
     inkscape:window-width="1255"
     inkscape:window-height="833"
     id="namedview4157"
     showgrid="false"
     inkscape:zoom="2.3978072"
     inkscape:cx="318.61886"
     inkscape:cy="45.960883"
     inkscape:window-x="384"
     inkscape:window-y="69"
     inkscape:window-maximized="0"
     inkscape:current-layer="g4163"
     units="mm"
     height="149mm"
     fit-margin-top="0"
     fit-margin-left="0"
     fit-margin-right="0"
     fit-margin-bottom="0" /><g
     id="g4163"
     inkscape:groupmode="layer"
     inkscape:label="PaymentSpring_logo_horiz K"
     transform="matrix(1.25,0,0,-1.25,-100.93113,251.81006)"><g
       id="g4165"
       style="opacity:0.98999999;fill:#ffffff;fill-opacity:1"
       inkscape:export-filename="/Users/hroehr/dev/mobile-ux-sandbox/app/assets/images/paymentspring_header_logo.png"
       inkscape:export-xdpi="53.669998"
       inkscape:export-ydpi="53.669998"><g
         id="g4167"
         clip-path="url(#clipPath4169)"
         style="fill:#ffffff;fill-opacity:1"><g
           id="g4173"
           transform="translate(112.5959,151.7588)"
           style="fill:#ffffff;fill-opacity:1"><path
             d="m 0,0 c -0.679,-1.174 -2.195,-1.579 -3.369,-0.899 l -8.109,4.691 14.159,24.469 -3.414,5.914 -15.866,-27.419 -2.987,1.728 c -1.174,0.679 -1.579,2.196 -0.9,3.37 l 15.885,27.451 c 0.144,0.249 0.454,0.783 0.454,0.783 l -5.267,9.122 c -0.369,0.639 -1.291,0.639 -1.66,0 0,0 -18.203,-31.341 -18.701,-32.392 -1.331,-2.804 -2.076,-5.94 -2.076,-9.25 0,-3.554 0.859,-6.907 2.378,-9.864 3.584,-6.974 10.849,-11.744 19.229,-11.744 8.38,0 15.646,4.77 19.229,11.744 1.52,2.957 2.379,6.31 2.379,9.864 0,3.141 -0.679,6.122 -1.884,8.816 L 0,0 Z"
             style="fill:#ffffff;fill-opacity:1;fill-rule:nonzero;stroke:none"
             id="path4175"
             inkscape:connector-curvature="0" /></g><g
           id="g4177"
           transform="translate(166.4769,160.2128)"
           style="fill:#ffffff;fill-opacity:1"><path
             d="m 0,0 c 0,5.681 -3.435,10.438 -9.446,10.438 -5.88,0 -9.843,-4.426 -9.91,-10.438 0.067,-6.011 4.03,-10.437 9.91,-10.437 C -3.435,-10.437 0,-5.747 0,0 m -27.679,-28.802 0,42.74 c 0,1.784 0.99,2.841 2.775,2.841 l 2.906,0 c 1.784,0 2.841,-1.057 2.841,-2.841 l 0,-2.18 c 2.774,4.096 6.869,5.748 11.362,5.748 9.71,0 16.316,-7.729 16.316,-17.506 0,-9.777 -6.606,-17.505 -16.316,-17.505 -4.493,0 -8.588,1.651 -11.362,5.747 l 0,-17.044 c 0,-1.783 -1.057,-2.774 -2.841,-2.774 l -2.906,0 c -1.785,0 -2.775,0.991 -2.775,2.774"
             style="fill:#ffffff;fill-opacity:1;fill-rule:nonzero;stroke:none"
             id="path4179"
             inkscape:connector-curvature="0" /></g><g
           id="g4181"
           transform="translate(205.3216,160.2128)"
           style="fill:#ffffff;fill-opacity:1"><path
             d="m 0,0 c -0.067,6.012 -3.965,10.438 -9.843,10.438 -6.011,0 -9.513,-4.757 -9.513,-10.438 0,-5.747 3.502,-10.437 9.513,-10.437 5.878,0 9.776,4.426 9.843,10.437 m -27.877,0 c 0,9.777 6.671,17.506 16.382,17.506 4.427,0 8.522,-1.652 11.363,-5.748 l 0,2.18 c 0,1.784 0.99,2.841 2.775,2.841 l 2.905,0 c 1.785,0 2.841,-1.057 2.841,-2.841 l 0,-27.943 c 0,-1.783 -1.056,-2.774 -2.841,-2.774 l -2.905,0 c -1.785,0 -2.775,0.991 -2.775,2.774 l 0,2.247 c -2.841,-4.096 -6.936,-5.747 -11.363,-5.747 -9.711,0 -16.382,7.728 -16.382,17.505"
             style="fill:#ffffff;fill-opacity:1;fill-rule:nonzero;stroke:none"
             id="path4183"
             inkscape:connector-curvature="0" /></g><g
           id="g4185"
           transform="translate(224.348,131.8736)"
           style="fill:#ffffff;fill-opacity:1"><path
             d="M 0,0 5.351,13.344 -7.267,41.815 c -0.858,1.916 0.067,3.304 2.18,3.304 l 3.567,0 c 1.585,0 2.643,-0.727 3.171,-2.247 l 8.06,-20.412 7.728,20.412 c 0.595,1.52 1.652,2.247 3.303,2.247 l 3.502,0 c 2.048,0 2.973,-1.322 2.113,-3.304 L 7.861,-1.123 C 7.2,-2.642 6.209,-3.237 4.623,-3.237 l -2.443,0 C 0.065,-3.237 -0.793,-1.915 0,0"
             style="fill:#ffffff;fill-opacity:1;fill-rule:nonzero;stroke:none"
             id="path4187"
             inkscape:connector-curvature="0" /></g><g
           id="g4189"
           transform="translate(254.0747,146.2082)"
           style="fill:#ffffff;fill-opacity:1"><path
             d="m 0,0 0,27.943 c 0,1.784 0.99,2.841 2.775,2.841 l 2.906,0 c 1.784,0 2.841,-1.057 2.841,-2.841 l 0,-3.104 c 1.321,4.294 5.284,6.671 9.777,6.671 3.567,0 7.795,-1.387 10.107,-6.407 3.038,5.416 7.201,6.407 11.097,6.407 8.324,0 12.552,-6.011 12.552,-15.193 L 52.055,0 c 0,-1.783 -0.992,-2.774 -2.775,-2.774 l -2.907,0 c -1.783,0 -2.84,0.991 -2.84,2.774 l 0,16.118 c 0,5.682 -2.378,8.258 -5.681,8.258 -2.973,0 -7.333,-2.18 -7.53,-10.107 L 30.322,0 c 0,-1.783 -1.058,-2.774 -2.841,-2.774 l -2.907,0 c -1.783,0 -2.775,0.991 -2.775,2.774 l 0,16.118 c 0,5.682 -2.443,8.258 -5.746,8.258 -3.172,0 -7.531,-2.444 -7.531,-10.635 L 8.522,0 c 0,-1.783 -1.057,-2.774 -2.841,-2.774 l -2.906,0 C 0.99,-2.774 0,-1.783 0,0"
             style="fill:#ffffff;fill-opacity:1;fill-rule:nonzero;stroke:none"
             id="path4191"
             inkscape:connector-curvature="0" /></g><g
           id="g4193"
           transform="translate(336.6521,164.309)"
           style="fill:#ffffff;fill-opacity:1"><path
             d="m 0,0 c -1.322,5.284 -5.55,6.606 -9.116,6.606 -3.7,0 -8.125,-1.519 -9.71,-6.606 L 0,0 Z m -27.481,-4.228 c 0,9.579 7.333,17.638 18.233,17.638 8.983,0 16.779,-5.417 17.439,-16.119 C 8.323,-4.426 7.2,-5.351 5.416,-5.351 l -24.639,0 c -0.133,-5.087 4.36,-9.248 11.295,-9.248 2.775,0 5.55,0.726 8.258,2.444 1.453,0.858 2.775,0.727 3.898,-0.528 l 0.595,-0.727 c 1.188,-1.322 1.122,-2.973 -0.53,-4.228 -3.831,-2.973 -8.388,-3.963 -12.616,-3.963 -11.891,0 -19.158,7.794 -19.158,17.373"
             style="fill:#ffffff;fill-opacity:1;fill-rule:nonzero;stroke:none"
             id="path4195"
             inkscape:connector-curvature="0" /></g><g
           id="g4197"
           transform="translate(348.0804,146.2082)"
           style="fill:#ffffff;fill-opacity:1"><path
             d="m 0,0 0,27.943 c 0,1.784 0.99,2.841 2.775,2.841 l 2.906,0 c 1.784,0 2.841,-1.057 2.841,-2.841 l 0,-3.104 c 1.519,4.227 5.483,6.671 10.635,6.671 8.192,0 12.552,-5.945 12.552,-15.127 L 31.709,0 c 0,-1.783 -1.057,-2.774 -2.842,-2.774 l -2.906,0 c -1.783,0 -2.774,0.991 -2.774,2.774 l 0,15.987 c 0,5.747 -2.511,8.389 -6.011,8.389 -3.435,0 -8.654,-2.576 -8.654,-10.768 L 8.522,0 c 0,-1.783 -1.057,-2.774 -2.841,-2.774 l -2.906,0 C 0.99,-2.774 0,-1.783 0,0"
             style="fill:#ffffff;fill-opacity:1;fill-rule:nonzero;stroke:none"
             id="path4199"
             inkscape:connector-curvature="0" /></g><g
           id="g4201"
           transform="translate(386.6596,154.3336)"
           style="fill:#ffffff;fill-opacity:1"><path
             d="m 0,0 0,16.185 -3.698,0 c -0.992,0 -1.52,0.528 -1.52,1.519 l 0,3.435 c 0,0.925 0.528,1.52 1.52,1.52 l 4.095,0 1.188,7.2 c 0.199,1.321 1.058,1.982 2.313,1.982 l 2.312,0 c 1.387,0 2.18,-0.793 2.18,-2.18 l 0,-7.002 8.323,0 c 0.991,0 1.52,-0.595 1.52,-1.52 l 0,-3.435 c 0,-0.991 -0.529,-1.519 -1.52,-1.519 l -8.323,0 0,-16.515 c 0,-3.039 1.52,-4.228 3.303,-4.228 1.85,0 3.37,1.255 3.37,3.303 0,0.33 0,0.726 -0.067,1.189 -0.133,1.057 0.197,1.651 1.255,1.651 l 3.5,0 c 0.86,0 1.52,-0.33 1.718,-1.189 0.265,-1.122 0.332,-2.245 0.332,-2.51 0,-6.209 -4.361,-9.512 -10.636,-9.512 C 5.615,-11.626 0,-8.984 0,0"
             style="fill:#ffffff;fill-opacity:1;fill-rule:nonzero;stroke:none"
             id="path4203"
             inkscape:connector-curvature="0" /></g><g
           id="g4205"
           transform="translate(412.4351,149.3133)"
           style="fill:#ffffff;fill-opacity:1"><path
             d="m 0,0 c -0.86,1.784 0.065,3.039 1.85,3.501 l 1.718,0.397 c 1.585,0.396 2.377,-0.331 3.5,-1.586 1.19,-1.453 3.237,-2.378 5.548,-2.378 2.908,0 4.955,1.585 4.955,3.7 0,1.783 -1.387,2.708 -3.567,3.5 L 9.711,8.654 C 5.416,9.975 0.793,12.617 0.793,18.1 c 0,5.945 4.888,10.305 11.823,10.305 4.228,0 8.126,-1.387 10.438,-5.35 1.123,-1.718 0.198,-3.105 -1.65,-3.568 l -1.52,-0.396 c -1.585,-0.396 -2.445,0.198 -3.502,1.321 -0.991,1.189 -2.311,1.519 -3.633,1.519 -2.576,0 -4.096,-1.585 -4.096,-3.501 0,-1.783 1.586,-2.708 3.435,-3.303 l 4.493,-1.585 c 6.671,-2.114 8.786,-6.011 8.851,-9.843 0,-6.738 -5.945,-10.305 -12.816,-10.305 C 7.003,-6.606 2.246,-4.36 0,0"
             style="fill:#ffffff;fill-opacity:1;fill-rule:nonzero;stroke:none"
             id="path4207"
             inkscape:connector-curvature="0" /></g><g
           id="g4209"
           transform="translate(469.0482,160.2128)"
           style="fill:#ffffff;fill-opacity:1"><path
             d="m 0,0 c 0,5.681 -3.435,10.438 -9.446,10.438 -5.88,0 -9.843,-4.426 -9.91,-10.438 0.067,-6.011 4.03,-10.437 9.91,-10.437 C -3.435,-10.437 0,-5.747 0,0 m -27.679,-28.802 0,42.74 c 0,1.784 0.99,2.841 2.775,2.841 l 2.906,0 c 1.784,0 2.841,-1.057 2.841,-2.841 l 0,-2.18 c 2.774,4.096 6.869,5.748 11.362,5.748 9.71,0 16.316,-7.729 16.316,-17.506 0,-9.777 -6.606,-17.505 -16.316,-17.505 -4.493,0 -8.588,1.651 -11.362,5.747 l 0,-17.044 c 0,-1.783 -1.057,-2.774 -2.841,-2.774 l -2.906,0 c -1.785,0 -2.775,0.991 -2.775,2.774"
             style="fill:#ffffff;fill-opacity:1;fill-rule:nonzero;stroke:none"
             id="path4211"
             inkscape:connector-curvature="0" /></g><g
           id="g4213"
           transform="translate(481.1382,146.2082)"
           style="fill:#ffffff;fill-opacity:1"><path
             d="m 0,0 0,27.943 c 0,1.784 0.99,2.841 2.775,2.841 l 2.775,0 c 1.783,0 2.773,-1.057 2.773,-2.841 l 0,-4.624 c 1.123,5.747 5.418,8.191 8.853,8.191 0.263,0 0.99,-0.066 1.32,-0.132 1.455,-0.132 1.718,-1.321 1.718,-2.642 l 0,-3.303 c 0,-1.718 -0.793,-2.444 -2.048,-2.246 -0.595,0.132 -1.188,0.198 -1.717,0.198 -3.171,0 -7.927,-1.915 -7.927,-12.881 L 8.522,0 c 0,-1.783 -1.057,-2.774 -2.841,-2.774 l -2.906,0 C 0.99,-2.774 0,-1.783 0,0"
             style="fill:#ffffff;fill-opacity:1;fill-rule:nonzero;stroke:none"
             id="path4215"
             inkscape:connector-curvature="0" /></g><g
           id="g4217"
           transform="translate(505.1842,146.2082)"
           style="fill:#ffffff;fill-opacity:1"><path
             d="m 0,0 0,27.943 c 0,1.784 0.99,2.841 2.775,2.841 l 2.973,0 c 1.783,0 2.773,-1.057 2.773,-2.841 L 8.521,0 c 0,-1.783 -0.99,-2.774 -2.773,-2.774 l -2.973,0 C 0.99,-2.774 0,-1.783 0,0"
             style="fill:#ffffff;fill-opacity:1;fill-rule:nonzero;stroke:none"
             id="path4219"
             inkscape:connector-curvature="0" /></g><g
           id="g4221"
           transform="translate(519.652,146.2082)"
           style="fill:#ffffff;fill-opacity:1"><path
             d="m 0,0 0,27.943 c 0,1.784 0.99,2.841 2.775,2.841 l 2.906,0 c 1.784,0 2.841,-1.057 2.841,-2.841 l 0,-3.104 c 1.519,4.227 5.483,6.671 10.635,6.671 8.192,0 12.552,-5.945 12.552,-15.127 L 31.709,0 c 0,-1.783 -1.057,-2.774 -2.842,-2.774 l -2.906,0 c -1.783,0 -2.774,0.991 -2.774,2.774 l 0,15.987 c 0,5.747 -2.511,8.389 -6.011,8.389 -3.435,0 -8.654,-2.576 -8.654,-10.768 L 8.522,0 c 0,-1.783 -1.057,-2.774 -2.841,-2.774 l -2.906,0 C 0.99,-2.774 0,-1.783 0,0"
             style="fill:#ffffff;fill-opacity:1;fill-rule:nonzero;stroke:none"
             id="path4223"
             inkscape:connector-curvature="0" /></g><g
           id="g4225"
           transform="translate(582.2773,160.2128)"
           style="fill:#ffffff;fill-opacity:1"><path
             d="m 0,0 c -0.065,6.012 -3.963,10.503 -9.841,10.503 -6.013,0 -9.513,-4.822 -9.513,-10.503 0,-5.747 3.5,-10.503 9.513,-10.503 5.878,0 9.776,4.492 9.841,10.503 m -22.724,-29.066 c -1.518,0.859 -1.783,2.247 -0.99,3.832 l 0.66,1.189 c 0.925,1.651 2.18,1.916 3.765,0.991 2.708,-1.585 5.748,-2.379 8.918,-2.379 6.078,0 10.306,3.369 10.306,10.24 l 0,3.435 c -2.775,-4.096 -7.003,-5.747 -11.429,-5.747 -9.71,0 -16.316,7.861 -16.316,17.505 0,9.579 6.606,17.506 16.316,17.506 4.426,0 8.588,-1.652 11.363,-5.748 l 0,2.379 c 0,1.717 0.99,2.642 2.774,2.642 l 2.84,0 c 1.784,0 2.775,-1.057 2.775,-2.841 l 0,-29.198 c 0,-12.088 -8.456,-17.042 -18.166,-17.042 -5.483,0 -9.513,1.321 -12.816,3.236"
             style="fill:#ffffff;fill-opacity:1;fill-rule:nonzero;stroke:none"
             id="path4227"
             inkscape:connector-curvature="0" /></g></g></g></g></svg>